<?xml version="1.0" standalone="no"?>
<!DOCTYPE svg PUBLIC "-//W3C//DTD SVG 20010904//EN"
 "http://www.w3.org/TR/2001/REC-SVG-20010904/DTD/svg10.dtd">
<svg version="1.0" xmlns="http://www.w3.org/2000/svg"
 width="700.000000pt" height="700.000000pt" viewBox="0 0 700.000000 700.000000"
 preserveAspectRatio="xMidYMid meet">
<metadata>
Created by potrace 1.14, written by Peter Selinger 2001-2017
</metadata>
<g transform="translate(0.000000,700.000000) scale(0.100000,-0.100000)"
fill="#000000" stroke="none">
<path d="M2918 6985 c-2 -2 -45 -5 -95 -9 -105 -7 -123 -9 -283 -37 -219 -37
-409 -91 -625 -177 -22 -8 -95 -42 -163 -74 -67 -32 -127 -58 -132 -58 -6 0
-10 -4 -10 -8 0 -5 -12 -14 -27 -21 -73 -33 -368 -226 -418 -274 -7 -7 -32
-28 -56 -47 -323 -260 -614 -657 -798 -1085 -35 -81 -110 -286 -127 -345 -17
-60 -73 -306 -78 -341 -3 -24 -8 -56 -11 -71 -3 -16 -7 -40 -10 -55 -27 -151
-27 -690 0 -818 3 -11 6 -33 9 -50 23 -162 92 -451 125 -530 5 -11 23 -58 41
-105 95 -256 234 -512 398 -735 37 -49 69 -92 72 -95 3 -3 27 -32 54 -65 83
-101 315 -326 431 -419 321 -256 670 -438 1061 -554 98 -29 274 -71 324 -77
23 -3 57 -8 120 -20 14 -2 60 -7 103 -10 43 -4 88 -9 100 -11 32 -7 371 -6
452 1 114 10 148 14 190 20 22 4 54 9 70 11 205 30 485 110 698 198 111 46
296 138 365 182 29 19 55 34 58 34 3 0 38 23 79 50 41 28 77 50 80 50 3 0 111
-106 240 -234 129 -129 255 -249 280 -266 173 -119 418 -95 567 55 136 137
172 335 92 512 -26 59 -82 122 -304 343 -121 121 -220 223 -220 226 0 4 26 46
58 93 262 384 432 826 503 1301 35 240 31 750 -7 910 -3 14 -8 39 -10 55 -3
17 -12 62 -20 100 -9 39 -18 81 -20 95 -3 14 -21 78 -40 143 -106 362 -293
728 -518 1017 -322 412 -751 745 -1216 944 -204 87 -514 181 -660 201 -25 3
-52 8 -60 10 -24 7 -70 13 -135 20 -33 3 -78 8 -100 12 -39 6 -422 13 -427 8z
m422 -908 c14 -3 59 -11 100 -17 374 -58 752 -235 1060 -495 42 -35 205 -198
240 -240 264 -312 440 -704 502 -1115 14 -93 17 -446 5 -552 -75 -673 -481
-1292 -1066 -1627 -105 -60 -331 -165 -331 -154 0 3 -6 1 -12 -5 -33 -26 -317
-95 -478 -116 -115 -15 -414 -18 -501 -6 -30 5 -72 11 -94 14 -90 11 -248 50
-375 93 -217 72 -420 179 -610 321 -299 224 -570 571 -700 897 -17 44 -36 89
-40 100 -27 64 -71 228 -94 349 -25 125 -31 211 -31 401 0 200 8 287 36 413 5
23 12 59 15 80 3 20 8 40 11 44 2 5 6 18 8 30 27 137 163 443 272 610 135 209
335 422 523 559 163 119 307 200 480 270 90 36 257 89 324 104 12 2 32 6 46 9
13 3 42 8 64 12 22 3 43 7 46 9 3 2 36 6 75 10 38 3 71 8 74 10 5 6 422 -2
451 -8z"/>
<path d="M6488 899 c-165 -26 -304 -134 -359 -280 -48 -127 -43 -245 16 -364
40 -80 60 -105 133 -162 130 -103 319 -119 479 -42 110 54 210 190 233 320 55
300 -206 575 -502 528z"/>
</g>
</svg>
