<svg xmlns="http://www.w3.org/2000/svg" viewBox="0 0 170.28 216.23"><defs><style>.cls-1,.cls-2{fill:#fff;}.cls-2{font-size:40.85px;font-family:Sen-Bold, Sen;font-weight:700;}</style></defs><title>logo_white</title><g id="Warstwa_2" data-name="Warstwa 2"><g id="Warstwa_1-2" data-name="Warstwa 1"><path class="cls-1" d="M128.14,112.59a11,11,0,0,0-15.55,0A53.09,53.09,0,0,1,37.51,37.51,11,11,0,1,0,22,22,75.08,75.08,0,0,0,128.14,128.14a11,11,0,0,0,0-15.55Z"/><path class="cls-1" d="M135.34,119.78A75.08,75.08,0,0,0,22,22,11,11,0,0,0,37.51,37.51a53.09,53.09,0,0,1,75.08,75.08,11,11,0,0,0,0,15.55l18.16,18.16a11,11,0,0,0,15.55-15.55Z"/><path class="cls-1" d="M167.06,151.51a11,11,0,1,0,0,15.55A11,11,0,0,0,167.06,151.51Z"/><text class="cls-2" transform="translate(6.73 206.06)">Quanda</text></g></g></svg>