<svg xmlns="http://www.w3.org/2000/svg" width="23.36" height="23.263" viewBox="0 0 23.36 23.263">
  <path id="Path_200" data-name="Path 200" d="M22.792,13.908a.821.821,0,0,0-.687.149,8.764,8.764,0,0,1-2.659,1.553,8.325,8.325,0,0,1-3.017.538A8.771,8.771,0,0,1,7.647,7.366a9.206,9.206,0,0,1,.478-2.9A8.021,8.021,0,0,1,9.559,1.9.763.763,0,0,0,9.439.825.821.821,0,0,0,8.752.675,12.054,12.054,0,0,0,2.42,4.917a11.827,11.827,0,1,0,20.91,9.917A.725.725,0,0,0,22.792,13.908Z" transform="translate(0 -0.652)" fill="#fff"/>
</svg>
