<svg id="mode" xmlns="http://www.w3.org/2000/svg" width="23.356" height="23.356" viewBox="0 0 23.356 23.356">
  <path id="Path_107" data-name="Path 107" d="M85.21,76.93a5.89,5.89,0,0,0-4.14-1.73,5.762,5.762,0,0,0-4.14,1.73,5.87,5.87,0,0,0,4.14,10.01,5.762,5.762,0,0,0,4.14-1.73,5.89,5.89,0,0,0,1.73-4.14A5.762,5.762,0,0,0,85.21,76.93Z" transform="translate(-69.392 -69.392)" fill="#c5c5c5"/>
  <path id="Path_108" data-name="Path 108" d="M141.6,3.985a.818.818,0,0,0,.8-.8V.8A.8.8,0,0,0,140.8.8V3.182A.818.818,0,0,0,141.6,3.985Z" transform="translate(-129.925)" fill="#c5c5c5"/>
  <path id="Path_109" data-name="Path 109" d="M220.344,44.443l1.7-1.7a.786.786,0,1,0-1.112-1.112l-1.7,1.7a.786.786,0,1,0,1.112,1.112Z" transform="translate(-202.085 -38.202)" fill="#c5c5c5"/>
  <path id="Path_110" data-name="Path 110" d="M253.982,140.8H251.6a.8.8,0,0,0,0,1.607h2.379a.8.8,0,0,0,0-1.607Z" transform="translate(-231.429 -129.925)" fill="#c5c5c5"/>
  <path id="Path_111" data-name="Path 111" d="M219.944,218.832a.786.786,0,0,0-1.112,1.112l1.7,1.7a.786.786,0,0,0,1.112-1.112Z" transform="translate(-201.716 -201.716)" fill="#c5c5c5"/>
  <path id="Path_112" data-name="Path 112" d="M141.6,250.8a.818.818,0,0,0-.8.8v2.379a.8.8,0,0,0,1.607,0V251.6A.818.818,0,0,0,141.6,250.8Z" transform="translate(-129.925 -231.429)" fill="#c5c5c5"/>
  <path id="Path_113" data-name="Path 113" d="M42.931,218.832l-1.7,1.7a.786.786,0,0,0,1.112,1.112l1.7-1.7a.786.786,0,0,0-1.112-1.112Z" transform="translate(-37.833 -201.716)" fill="#c5c5c5"/>
  <path id="Path_114" data-name="Path 114" d="M3.985,141.6a.818.818,0,0,0-.8-.8H.8a.8.8,0,0,0,0,1.607H3.182A.818.818,0,0,0,3.985,141.6Z" transform="translate(0 -129.925)" fill="#c5c5c5"/>
  <path id="Path_115" data-name="Path 115" d="M42.931,44.443a.786.786,0,1,0,1.112-1.112l-1.7-1.7a.786.786,0,0,0-1.112,1.112Z" transform="translate(-37.833 -38.202)" fill="#c5c5c5"/>
</svg>
