<svg xmlns="http://www.w3.org/2000/svg" viewBox="0 0 117.03 105"><defs><style>.cls-1{fill:#1d1d1b;}</style></defs><title>Zasób 16</title><g id="Warstwa_2" data-name="Warstwa 2"><g id="Warstwa_1-2" data-name="Warstwa 1"><path class="cls-1" d="M58.21,56.59c.11.25.21.49.3.75.1-.26.2-.5.31-.75Z"/><path class="cls-1" d="M50.77,23.14a17.25,17.25,0,0,0-4.91,2.3,13.05,13.05,0,0,1,3.24,2.68,13.1,13.1,0,0,1,6.35-1.64h6.13a13.1,13.1,0,0,1,6.35,1.64,13.05,13.05,0,0,1,3.24-2.68,17.25,17.25,0,0,0-4.91-2.3,12.88,12.88,0,1,0-15.49,0ZM58.51,4a8.88,8.88,0,1,1-8.87,8.88A8.89,8.89,0,0,1,58.51,4Z"/><path class="cls-1" d="M31.64,46.81a17.15,17.15,0,0,0-6.48,3.5,12.75,12.75,0,0,1,3.58,2.25,13.15,13.15,0,0,1,7.58-2.41h6.13A13.14,13.14,0,0,1,50,52.56a13,13,0,0,1,3.58-2.25,17.11,17.11,0,0,0-6.47-3.5,12.89,12.89,0,1,0-15.49,0Zm7.74-19.14a8.88,8.88,0,1,1-8.88,8.88A8.89,8.89,0,0,1,39.38,27.67Z"/><path class="cls-1" d="M69.9,46.81a17.26,17.26,0,0,0-6.46,3.49A12.72,12.72,0,0,1,67,52.55a13,13,0,0,1,7.55-2.4h6.13a13.09,13.09,0,0,1,7.57,2.41,13,13,0,0,1,3.58-2.25,17.11,17.11,0,0,0-6.47-3.5,12.88,12.88,0,1,0-15.49,0Zm7.75-19.14a8.88,8.88,0,1,1-8.88,8.88A8.89,8.89,0,0,1,77.65,27.67Z"/><path class="cls-1" d="M104.54,72.46a12.88,12.88,0,1,0-15.48,0A17.22,17.22,0,0,0,77.23,84.32,20.32,20.32,0,0,0,65.45,73a12.88,12.88,0,1,0-13.83,0,20.31,20.31,0,0,0-11.8,11.34A17.22,17.22,0,0,0,28,72.46a12.88,12.88,0,1,0-15.49,0A17.19,17.19,0,0,0,0,89V94.5a9.86,9.86,0,0,0,9.84,9.85H30.61a9.88,9.88,0,0,0,9-5.82,10.93,10.93,0,0,0,9.66,5.82,2,2,0,0,0,0-4,7,7,0,0,1-6.94-6.94V92a16.23,16.23,0,1,1,32.45,0v1.38a7,7,0,0,1-6.94,6.94,2,2,0,0,0,0,4,10.94,10.94,0,0,0,9.74-6,10.4,10.4,0,0,0,9.39,6h19.7A10.4,10.4,0,0,0,117,94V89A17.19,17.19,0,0,0,104.54,72.46ZM20.23,53.32a8.88,8.88,0,1,1-8.88,8.88A8.89,8.89,0,0,1,20.23,53.32ZM36.46,94.5a5.85,5.85,0,0,1-5.85,5.85H9.84A5.85,5.85,0,0,1,4,94.5V89A13.18,13.18,0,0,1,17.17,75.8h6.12A13.18,13.18,0,0,1,36.46,89ZM58.53,53.32a8.88,8.88,0,1,1-8.87,8.88A8.89,8.89,0,0,1,58.53,53.32Zm38.27,0a8.88,8.88,0,1,1-8.88,8.88A8.89,8.89,0,0,1,96.8,53.32ZM113,94a6.38,6.38,0,0,1-6.38,6.38H87A6.38,6.38,0,0,1,80.57,94V89A13.18,13.18,0,0,1,93.74,75.8h6.12A13.18,13.18,0,0,1,113,89Z"/><circle class="cls-1" cx="58.53" cy="102.35" r="2.66"/></g></g></svg>